<svg xmlns="http://www.w3.org/2000/svg" viewBox="0 0 600 400" width="600" height="400">
  <rect width="600" height="400" fill="#F0F8FF"/>
  <ellipse cx="560" cy="80" rx="130" ry="100" fill="#DDEEFF" opacity="0.6"/>
  <ellipse cx="40" cy="350" rx="100" ry="80" fill="#FFF8E1" opacity="0.6"/>

  <!-- left panel: destination list -->
  <rect x="20" y="20" width="190" height="360" rx="12" fill="#fff" stroke="#B3D4F5" stroke-width="1"/>
  <rect x="20" y="20" width="190" height="44" rx="12" fill="#1565C0"/>
  <rect x="20" y="52" width="190" height="12" rx="0" fill="#1565C0"/>
  <text font-family="Arial" font-size="11" font-weight="700" fill="#fff" x="115" y="44" text-anchor="middle">Wanderley</text>

  <!-- search bar -->
  <rect x="32" y="72" width="166" height="24" rx="8" fill="#F0F8FF" stroke="#B3D4F5" stroke-width="0.8"/>
  <text font-family="Arial" font-size="8" fill="#90A4AE" x="50" y="84" dominant-baseline="middle">Search destinations...</text>

  <text font-family="Arial" font-size="8" font-weight="700" fill="#1565C0" x="32" y="114">Saved Destinations</text>

  <!-- destination items -->
  <rect x="32" y="120" width="166" height="50" rx="8" fill="#E3F2FD" stroke="#90CAF9" stroke-width="0.8"/>
  <rect x="36" y="124" width="40" height="42" rx="5" fill="#1565C0" opacity="0.2"/>
  <text font-family="Arial" font-size="16" x="56" y="150" text-anchor="middle" dominant-baseline="middle">🏔</text>
  <text font-family="Arial" font-size="8" font-weight="700" fill="#0D47A1" x="88" y="140" dominant-baseline="middle">Manali, HP</text>
  <text font-family="Arial" font-size="7" fill="#1976D2" x="88" y="153" dominant-baseline="middle">Est. ₹12,000 · 5 days</text>
  <text font-family="Arial" font-size="7" fill="#64B5F6" x="88" y="164" dominant-baseline="middle">Dec–Feb best season</text>

  <rect x="32" y="176" width="166" height="50" rx="8" fill="#FFF8E1" stroke="#FFE082" stroke-width="0.8"/>
  <rect x="36" y="180" width="40" height="42" rx="5" fill="#FFC107" opacity="0.2"/>
  <text font-family="Arial" font-size="16" x="56" y="206" text-anchor="middle" dominant-baseline="middle">🏖</text>
  <text font-family="Arial" font-size="8" font-weight="700" fill="#E65100" x="88" y="196" dominant-baseline="middle">Goa Beaches</text>
  <text font-family="Arial" font-size="7" fill="#F57C00" x="88" y="209" dominant-baseline="middle">Est. ₹9,500 · 4 days</text>
  <text font-family="Arial" font-size="7" fill="#FFA726" x="88" y="220" dominant-baseline="middle">Oct–Mar best season</text>

  <rect x="32" y="232" width="166" height="50" rx="8" fill="#E8F5E9" stroke="#A5D6A7" stroke-width="0.8"/>
  <rect x="36" y="236" width="40" height="42" rx="5" fill="#43A047" opacity="0.2"/>
  <text font-family="Arial" font-size="16" x="56" y="262" text-anchor="middle" dominant-baseline="middle">🌿</text>
  <text font-family="Arial" font-size="8" font-weight="700" fill="#1B5E20" x="88" y="252" dominant-baseline="middle">Coorg, Karnataka</text>
  <text font-family="Arial" font-size="7" fill="#2E7D32" x="88" y="265" dominant-baseline="middle">Est. ₹7,200 · 3 days</text>
  <text font-family="Arial" font-size="7" fill="#66BB6A" x="88" y="276" dominant-baseline="middle">Oct–May best season</text>

  <!-- right panel: destination detail -->
  <rect x="226" y="20" width="354" height="360" rx="12" fill="#fff" stroke="#B3D4F5" stroke-width="1"/>

  <!-- hero image placeholder stylized -->
  <rect x="226" y="20" width="354" height="130" rx="12" fill="#1565C0"/>
  <rect x="226" y="132" width="354" height="18" rx="0" fill="#1565C0"/>
  <!-- abstract mountain silhouette -->
  <polygon points="310,120 360,60 410,120" fill="#0D47A1" opacity="0.6"/>
  <polygon points="380,120 430,70 490,120" fill="#1976D2" opacity="0.5"/>
  <polygon points="270,120 310,80 355,120" fill="#0D47A1" opacity="0.4"/>
  <ellipse cx="400" cy="50" rx="18" ry="18" fill="#FFF9C4" opacity="0.8"/>
  <!-- snow caps -->
  <polygon points="350,75 360,60 370,75" fill="#fff" opacity="0.7"/>
  <polygon points="420,82 430,70 440,82" fill="#fff" opacity="0.6"/>

  <text font-family="Arial" font-size="14" font-weight="800" fill="#fff" x="250" y="112">Manali, Himachal Pradesh</text>
  <text font-family="Arial" font-size="8" fill="#90CAF9" x="250" y="128">Hill station · Adventure travel</text>

  <!-- cost breakdown -->
  <text font-family="Arial" font-size="9" font-weight="700" fill="#1565C0" x="242" y="172">Cost Estimate — 5 Days</text>
  <rect x="242" y="180" width="322" height="70" rx="8" fill="#F0F8FF" stroke="#B3D4F5" stroke-width="0.8"/>

  <rect x="254" y="192" width="140" height="12" rx="3" fill="#BBDEFB"/>
  <rect x="254" y="192" width="112" height="12" rx="3" fill="#1565C0"/>
  <text font-family="Arial" font-size="7" fill="#E3F2FD" x="258" y="203" dominant-baseline="middle">Transport · ₹4,200</text>

  <rect x="254" y="210" width="140" height="12" rx="3" fill="#BBDEFB"/>
  <rect x="254" y="210" width="84" height="12" rx="3" fill="#1976D2"/>
  <text font-family="Arial" font-size="7" fill="#E3F2FD" x="258" y="221" dominant-baseline="middle">Stay · ₹3,500</text>

  <rect x="254" y="228" width="140" height="12" rx="3" fill="#BBDEFB"/>
  <rect x="254" y="228" width="56" height="12" rx="3" fill="#42A5F5"/>
  <text font-family="Arial" font-size="7" fill="#E3F2FD" x="258" y="239" dominant-baseline="middle">Food · ₹2,300</text>

  <text font-family="Arial" font-size="8" font-weight="700" fill="#0D47A1" x="408" y="242" text-anchor="end">Total: ₹10,000–₹14,000</text>

  <!-- itinerary preview -->
  <text font-family="Arial" font-size="9" font-weight="700" fill="#1565C0" x="242" y="272">Itinerary Outline</text>
  <rect x="242" y="280" width="322" height="14" rx="3" fill="#E3F2FD"/>
  <text font-family="Arial" font-size="7" fill="#1565C0" x="248" y="291" dominant-baseline="middle">Day 1 · Arrive Volvo · Check in · Mall Road evening</text>
  <rect x="242" y="298" width="322" height="14" rx="3" fill="#F5F5F5"/>
  <text font-family="Arial" font-size="7" fill="#546E7A" x="248" y="309" dominant-baseline="middle">Day 2 · Solang Valley · Rohtang Pass (permit req.)</text>
  <rect x="242" y="316" width="322" height="14" rx="3" fill="#F5F5F5"/>
  <text font-family="Arial" font-size="7" fill="#546E7A" x="248" y="327" dominant-baseline="middle">Day 3 · Kullu · Manikaran · River rafting</text>
  <rect x="242" y="334" width="322" height="14" rx="3" fill="#F5F5F5"/>
  <text font-family="Arial" font-size="7" fill="#546E7A" x="248" y="345" dominant-baseline="middle">Day 4 · Naggar Castle · Local market</text>
  <rect x="242" y="352" width="322" height="14" rx="3" fill="#F5F5F5"/>
  <text font-family="Arial" font-size="7" fill="#546E7A" x="248" y="363" dominant-baseline="middle">Day 5 · Return journey · Depart evening bus</text>
</svg>
